<svg width="30" height="30" viewBox="0 0 30 30" fill="none" xmlns="http://www.w3.org/2000/svg">
<rect width="30" height="30" fill="white"/>
<path d="M25.6797 8.70892C23.2519 17.4502 20.7098 21.3348 14.6606 26.959C8.49351 20.9178 6.59696 16.5819 4.31969 8.3697C12.6272 6.07654 17.2963 6.15983 25.6797 8.70892Z" stroke="#2C2827" stroke-width="1.26"/>
<path fill-rule="evenodd" clip-rule="evenodd" d="M14.297 8.32376H14.2973L14.2972 8.32437L16.3023 18.7595L18.2263 11.5421H19.8757L16.8585 21.6529H15.531L15.531 21.6529H15.5307L13.5364 11.2739L11.6824 18.4614H9.92578L12.9696 8.32432L12.9695 8.32376H12.9698H14.297Z" fill="#0066FF"/>
<g filter="url(#filter0_d_302_36)">
<path d="M18.2227 11.5439C18.1403 10.849 17.8061 10.3096 17.22 9.9256C16.6339 9.5416 15.915 9.3496 15.0633 9.3496C14.4406 9.3496 13.8957 9.45017 13.4286 9.65132C12.9662 9.85246 12.6044 10.129 12.3434 10.481C12.087 10.833 11.9588 11.233 11.9588 11.681C11.9588 12.0559 12.0481 12.3782 12.2267 12.6479C12.4098 12.9131 12.6434 13.1348 12.9272 13.3131C13.2111 13.4868 13.5088 13.6308 13.8201 13.7451C14.1315 13.8548 14.4177 13.9439 14.6787 14.0125L16.1073 14.3965C16.4736 14.4925 16.8811 14.6251 17.3298 14.7942C17.7832 14.9634 18.2159 15.1942 18.628 15.4868C19.0446 15.7748 19.3881 16.1451 19.6582 16.5976C19.9284 17.0502 20.0634 17.6057 20.0634 18.2639C20.0634 19.0228 19.8643 19.7085 19.4659 20.3211C19.0721 20.9337 18.4952 21.4205 17.7351 21.7817C16.9796 22.1428 16.0615 22.3234 14.9809 22.3234C13.9735 22.3234 13.1012 22.1611 12.364 21.8365C11.6314 21.512 11.0545 21.0594 10.6332 20.4788C10.2165 19.8982 9.98073 19.224 9.92578 18.4559H11.6841C11.7299 18.9862 11.9084 19.4251 12.2198 19.7725C12.5357 20.1154 12.9341 20.3714 13.4149 20.5405C13.9003 20.7051 14.4223 20.7874 14.9809 20.7874C15.6311 20.7874 16.2149 20.6822 16.7323 20.472C17.2497 20.2571 17.6595 19.96 17.9617 19.5805C18.2639 19.1965 18.415 18.7485 18.415 18.2365C18.415 17.7702 18.2845 17.3908 18.0236 17.0982C17.7626 16.8057 17.4191 16.5679 16.9933 16.3851C16.5675 16.2022 16.1073 16.0422 15.6128 15.9051L13.8819 15.4114C12.783 15.0959 11.913 14.6456 11.272 14.0605C10.6309 13.4753 10.3104 12.7096 10.3104 11.7633C10.3104 10.977 10.5233 10.2913 10.9492 9.70617C11.3796 9.11646 11.9565 8.65931 12.68 8.33474C13.408 8.00559 14.2208 7.84102 15.1182 7.84102C16.0249 7.84102 16.8307 8.00331 17.5359 8.32788C18.241 8.64788 18.7997 9.08674 19.2118 9.64446C19.6285 10.2022 19.8482 10.8353 19.8711 11.5439H18.2227Z" fill="#FF9900"/>
</g>
<defs>
<filter id="filter0_d_302_36" x="9.56578" y="7.84102" width="10.8577" height="15.2024" filterUnits="userSpaceOnUse" color-interpolation-filters="sRGB">
<feFlood flood-opacity="0" result="BackgroundImageFix"/>
<feColorMatrix in="SourceAlpha" type="matrix" values="0 0 0 0 0 0 0 0 0 0 0 0 0 0 0 0 0 0 127 0" result="hardAlpha"/>
<feOffset dy="0.36"/>
<feGaussianBlur stdDeviation="0.18"/>
<feComposite in2="hardAlpha" operator="out"/>
<feColorMatrix type="matrix" values="0 0 0 0 0 0 0 0 0 0 0 0 0 0 0 0 0 0 0.25 0"/>
<feBlend mode="normal" in2="BackgroundImageFix" result="effect1_dropShadow_302_36"/>
<feBlend mode="normal" in="SourceGraphic" in2="effect1_dropShadow_302_36" result="shape"/>
</filter>
</defs>
</svg>
