<svg width="30" height="6" viewBox="0 0 30 6" xmlns="http://www.w3.org/2000/svg">
<path d="M3.22398 1.44119C3.19196 1.17074 3.06207 0.96079 2.83433 0.811334C2.60659 0.661878 2.32725 0.587149 1.99631 0.587149C1.75433 0.587149 1.5426 0.626293 1.36112 0.704579C1.18142 0.782866 1.04086 0.89051 0.939439 1.02751C0.839802 1.16451 0.789983 1.3202 0.789983 1.49456C0.789983 1.64046 0.824678 1.7659 0.894069 1.87087C0.965238 1.97407 1.05598 2.06036 1.16629 2.12975C1.27661 2.19736 1.39226 2.25341 1.51324 2.29789C1.63423 2.34059 1.74544 2.37529 1.84685 2.40198L2.40198 2.55143C2.54431 2.5888 2.70267 2.64039 2.87703 2.70623C3.05318 2.77206 3.22132 2.86191 3.38145 2.97578C3.54336 3.08787 3.6768 3.23199 3.78178 3.40814C3.88675 3.58428 3.93924 3.80046 3.93924 4.05667C3.93924 4.35202 3.86184 4.61891 3.70705 4.85733C3.55403 5.09575 3.32985 5.28524 3.0345 5.4258C2.74092 5.56636 2.38418 5.63664 1.96428 5.63664C1.57285 5.63664 1.2339 5.57347 0.947446 5.44715C0.662767 5.32082 0.438583 5.14467 0.274893 4.91871C0.112982 4.69275 0.0213509 4.43031 0 4.1314H0.683229C0.701021 4.33779 0.770411 4.5086 0.8914 4.64382C1.01417 4.77726 1.16896 4.8769 1.35578 4.94273C1.54438 5.00678 1.74721 5.03881 1.96428 5.03881C2.21693 5.03881 2.44379 4.99789 2.64484 4.91604C2.8459 4.83242 3.00514 4.71677 3.12257 4.56909C3.24 4.41963 3.29871 4.24527 3.29871 4.04599C3.29871 3.86451 3.248 3.71683 3.14659 3.60296C3.04517 3.48909 2.91173 3.39657 2.74626 3.3254C2.58079 3.25423 2.40198 3.19196 2.20982 3.13858L1.53726 2.94642C1.11025 2.82366 0.772191 2.6484 0.523097 2.42066C0.274003 2.19291 0.149456 1.89489 0.149456 1.52659C0.149456 1.22056 0.232191 0.953673 0.39766 0.72593C0.564909 0.496408 0.789093 0.318484 1.07021 0.192158C1.35311 0.0640527 1.66893 0 2.01766 0C2.36995 0 2.6831 0.063163 2.9571 0.189489C3.2311 0.314036 3.44817 0.484843 3.6083 0.70191C3.77021 0.918978 3.85562 1.1654 3.86451 1.44119H3.22398Z" fill="black"/>
<path d="M5.57192 3.07453V5.54056H4.94206V0.0747282H5.57192V2.08171H5.62529C5.72137 1.86998 5.86549 1.70184 6.05765 1.5773C6.25158 1.45097 6.50958 1.38781 6.83162 1.38781C7.11096 1.38781 7.3556 1.44385 7.56555 1.55595C7.7755 1.66626 7.93831 1.83618 8.05396 2.0657C8.17139 2.29344 8.2301 2.58346 8.2301 2.93575V5.54056H7.60025V2.97845C7.60025 2.65285 7.51574 2.40109 7.34671 2.22316C7.17946 2.04346 6.94727 1.95361 6.65013 1.95361C6.44374 1.95361 6.2587 1.9972 6.09501 2.08438C5.9331 2.17156 5.805 2.29878 5.7107 2.46603C5.61818 2.63328 5.57192 2.83611 5.57192 3.07453Z" fill="black"/>
<path d="M10.5887 5.63664C10.3289 5.63664 10.0932 5.58771 9.88146 5.48985C9.66973 5.39021 9.50159 5.24698 9.37704 5.06016C9.2525 4.87156 9.19022 4.64382 9.19022 4.37693C9.19022 4.14207 9.23648 3.95169 9.329 3.8058C9.42152 3.65812 9.54518 3.54247 9.69998 3.45884C9.85477 3.37522 10.0256 3.31295 10.2124 3.27202C10.401 3.22932 10.5905 3.19552 10.7809 3.17061C11.03 3.13858 11.2319 3.11456 11.3867 3.09855C11.5433 3.08076 11.6571 3.0514 11.7283 3.01048C11.8013 2.96955 11.8377 2.89838 11.8377 2.79697V2.77562C11.8377 2.51229 11.7657 2.30768 11.6216 2.16178C11.4792 2.01588 11.263 1.94293 10.973 1.94293C10.6723 1.94293 10.4366 2.00876 10.2658 2.14043C10.095 2.27209 9.97487 2.41265 9.90548 2.56211L9.30765 2.3486C9.41441 2.0995 9.55675 1.90557 9.73467 1.76679C9.91437 1.62623 10.1101 1.52837 10.3218 1.47321C10.5353 1.41628 10.7453 1.38781 10.9517 1.38781C11.0833 1.38781 11.2346 1.40382 11.4054 1.43585C11.578 1.46609 11.7443 1.52926 11.9045 1.62534C12.0664 1.72142 12.2007 1.86642 12.3075 2.06036C12.4142 2.2543 12.4676 2.51407 12.4676 2.83967V5.54056H11.8377V4.98543H11.8057C11.763 5.0744 11.6918 5.16958 11.5922 5.271C11.4926 5.37242 11.36 5.45871 11.1945 5.52988C11.0291 5.60105 10.8271 5.63664 10.5887 5.63664ZM10.6848 5.07084C10.9339 5.07084 11.1438 5.02191 11.3146 4.92405C11.4872 4.82619 11.6171 4.69986 11.7043 4.54507C11.7933 4.39028 11.8377 4.22748 11.8377 4.05667V3.4802C11.811 3.51222 11.7523 3.54158 11.6616 3.56827C11.5726 3.59318 11.4694 3.61542 11.352 3.63499C11.2364 3.65278 11.1234 3.66879 11.0131 3.68303C10.9045 3.69548 10.8164 3.70616 10.7488 3.71505C10.5851 3.73641 10.4321 3.7711 10.2898 3.81914C10.1492 3.8654 10.0354 3.93568 9.94818 4.02998C9.86278 4.1225 9.82007 4.24883 9.82007 4.40896C9.82007 4.62781 9.90103 4.79327 10.0629 4.90537C10.2266 5.01568 10.4339 5.07084 10.6848 5.07084Z" fill="black"/>
<path d="M14.8235 5.63664C14.5638 5.63664 14.328 5.58771 14.1163 5.48985C13.9045 5.39021 13.7364 5.24698 13.6119 5.06016C13.4873 4.87156 13.425 4.64382 13.425 4.37693C13.425 4.14207 13.4713 3.95169 13.5638 3.8058C13.6563 3.65812 13.78 3.54247 13.9348 3.45884C14.0896 3.37522 14.2604 3.31295 14.4472 3.27202C14.6358 3.22932 14.8253 3.19552 15.0157 3.17061C15.2648 3.13858 15.4667 3.11456 15.6215 3.09855C15.7781 3.08076 15.892 3.0514 15.9631 3.01048C16.0361 2.96955 16.0725 2.89838 16.0725 2.79697V2.77562C16.0725 2.51229 16.0005 2.30768 15.8564 2.16178C15.714 2.01588 15.4979 1.94293 15.2078 1.94293C14.9071 1.94293 14.6714 2.00876 14.5006 2.14043C14.3298 2.27209 14.2097 2.41265 14.1403 2.56211L13.5425 2.3486C13.6492 2.0995 13.7916 1.90557 13.9695 1.76679C14.1492 1.62623 14.3449 1.52837 14.5566 1.47321C14.7701 1.41628 14.9801 1.38781 15.1865 1.38781C15.3182 1.38781 15.4694 1.40382 15.6402 1.43585C15.8128 1.46609 15.9791 1.52926 16.1393 1.62534C16.3012 1.72142 16.4355 1.86642 16.5423 2.06036C16.649 2.2543 16.7024 2.51407 16.7024 2.83967V5.54056H16.0725V4.98543H16.0405C15.9978 5.0744 15.9267 5.16958 15.827 5.271C15.7274 5.37242 15.5948 5.45871 15.4294 5.52988C15.2639 5.60105 15.0619 5.63664 14.8235 5.63664ZM14.9196 5.07084C15.1687 5.07084 15.3786 5.02191 15.5495 4.92405C15.722 4.82619 15.8519 4.69986 15.9391 4.54507C16.0281 4.39028 16.0725 4.22748 16.0725 4.05667V3.4802C16.0459 3.51222 15.9871 3.54158 15.8964 3.56827C15.8074 3.59318 15.7042 3.61542 15.5868 3.63499C15.4712 3.65278 15.3582 3.66879 15.2479 3.68303C15.1393 3.69548 15.0513 3.70616 14.9837 3.71505C14.82 3.73641 14.6669 3.7711 14.5246 3.81914C14.3841 3.8654 14.2702 3.93568 14.183 4.02998C14.0976 4.1225 14.0549 4.24883 14.0549 4.40896C14.0549 4.62781 14.1358 4.79327 14.2978 4.90537C14.4614 5.01568 14.6687 5.07084 14.9196 5.07084Z" fill="black"/>
<path d="M17.9374 5.54056V0.0747282H18.5673V2.09239H18.6206C18.6669 2.02122 18.731 1.93048 18.8128 1.82016C18.8964 1.70807 19.0156 1.60843 19.1704 1.52125C19.327 1.43229 19.5387 1.38781 19.8056 1.38781C20.1508 1.38781 20.455 1.4741 20.7184 1.64669C20.9817 1.81927 21.1872 2.06392 21.3349 2.38062C21.4826 2.69733 21.5564 3.07097 21.5564 3.50155C21.5564 3.93568 21.4826 4.31199 21.3349 4.63047C21.1872 4.94718 20.9826 5.19271 20.721 5.36708C20.4595 5.53967 20.1579 5.62596 19.8163 5.62596C19.553 5.62596 19.3421 5.58237 19.1838 5.49519C19.0254 5.40622 18.9035 5.3057 18.8181 5.1936C18.7327 5.07973 18.6669 4.98543 18.6206 4.9107H18.5459V5.54056H17.9374ZM18.5566 3.49087C18.5566 3.80046 18.602 4.07357 18.6927 4.31021C18.7834 4.54507 18.916 4.72922 19.0904 4.86267C19.2647 4.99433 19.4782 5.06016 19.7309 5.06016C19.9942 5.06016 20.214 4.99077 20.3901 4.85199C20.568 4.71143 20.7015 4.52283 20.7904 4.28619C20.8812 4.04777 20.9265 3.78267 20.9265 3.49087C20.9265 3.20263 20.8821 2.94286 20.7931 2.71156C20.7059 2.47848 20.5734 2.29433 20.3954 2.15911C20.2193 2.02211 19.9978 1.95361 19.7309 1.95361C19.4747 1.95361 19.2594 2.01855 19.085 2.14843C18.9107 2.27654 18.779 2.45624 18.69 2.68754C18.6011 2.91707 18.5566 3.18484 18.5566 3.49087Z" fill="black"/>
<path d="M23.7262 5.63664C23.4664 5.63664 23.2307 5.58771 23.0189 5.48985C22.8072 5.39021 22.6391 5.24698 22.5145 5.06016C22.39 4.87156 22.3277 4.64382 22.3277 4.37693C22.3277 4.14207 22.374 3.95169 22.4665 3.8058C22.559 3.65812 22.6827 3.54247 22.8374 3.45884C22.9922 3.37522 23.163 3.31295 23.3499 3.27202C23.5385 3.22932 23.728 3.19552 23.9183 3.17061C24.1674 3.13858 24.3694 3.11456 24.5242 3.09855C24.6807 3.08076 24.7946 3.0514 24.8658 3.01048C24.9387 2.96955 24.9752 2.89838 24.9752 2.79697V2.77562C24.9752 2.51229 24.9031 2.30768 24.759 2.16178C24.6167 2.01588 24.4005 1.94293 24.1105 1.94293C23.8098 1.94293 23.5741 2.00876 23.4032 2.14043C23.2324 2.27209 23.1123 2.41265 23.0429 2.56211L22.4451 2.3486C22.5519 2.0995 22.6942 1.90557 22.8721 1.76679C23.0518 1.62623 23.2476 1.52837 23.4593 1.47321C23.6728 1.41628 23.8827 1.38781 24.0891 1.38781C24.2208 1.38781 24.372 1.40382 24.5428 1.43585C24.7154 1.46609 24.8818 1.52926 25.0419 1.62534C25.2038 1.72142 25.3382 1.86642 25.4449 2.06036C25.5517 2.2543 25.6051 2.51407 25.6051 2.83967V5.54056H24.9752V4.98543H24.9432C24.9005 5.0744 24.8293 5.16958 24.7297 5.271C24.63 5.37242 24.4975 5.45871 24.332 5.52988C24.1665 5.60105 23.9646 5.63664 23.7262 5.63664ZM23.8223 5.07084C24.0713 5.07084 24.2813 5.02191 24.4521 4.92405C24.6247 4.82619 24.7546 4.69986 24.8418 4.54507C24.9307 4.39028 24.9752 4.22748 24.9752 4.05667V3.4802C24.9485 3.51222 24.8898 3.54158 24.7991 3.56827C24.7101 3.59318 24.6069 3.61542 24.4895 3.63499C24.3738 3.65278 24.2608 3.66879 24.1505 3.68303C24.042 3.69548 23.9539 3.70616 23.8863 3.71505C23.7226 3.73641 23.5696 3.7711 23.4273 3.81914C23.2867 3.8654 23.1728 3.93568 23.0856 4.02998C23.0002 4.1225 22.9575 4.24883 22.9575 4.40896C22.9575 4.62781 23.0385 4.79327 23.2004 4.90537C23.3641 5.01568 23.5714 5.07084 23.8223 5.07084Z" fill="black"/>
<path d="M27.3845 3.07453V5.54056H26.7547V1.44119H27.3632V2.08171H27.4165C27.5126 1.87354 27.6585 1.70629 27.8542 1.57997C28.05 1.45186 28.3026 1.38781 28.6122 1.38781C28.8898 1.38781 29.1326 1.44474 29.3408 1.55862C29.549 1.67071 29.7109 1.84151 29.8265 2.07104C29.9422 2.29878 30 2.58702 30 2.93575V5.54056H29.3701V2.97845C29.3701 2.65641 29.2865 2.40553 29.1193 2.22583C28.952 2.04435 28.7225 1.95361 28.4307 1.95361C28.2297 1.95361 28.05 1.9972 27.8916 2.08438C27.735 2.17156 27.6114 2.29878 27.5206 2.46603C27.4299 2.63328 27.3845 2.83611 27.3845 3.07453Z" fill="black"/>
</svg>
